<svg width="28" height="31" viewBox="0 0 28 31" fill="none" xmlns="http://www.w3.org/2000/svg">
<path d="M24.5 27.501H3.5V11.001H24.5M24.5 3.50098H23V0.500977H20V3.50098H8V0.500977H5V3.50098H3.5C1.835 3.50098 0.5 4.85098 0.5 6.50098V27.501C0.5 28.2966 0.81607 29.0597 1.37868 29.6223C1.94129 30.1849 2.70435 30.501 3.5 30.501H24.5C25.2956 30.501 26.0587 30.1849 26.6213 29.6223C27.1839 29.0597 27.5 28.2966 27.5 27.501V6.50098C27.5 5.70533 27.1839 4.94227 26.6213 4.37966C26.0587 3.81705 25.2956 3.50098 24.5 3.50098ZM20.795 15.591L19.205 14.001L11.885 21.321L8.705 18.141L7.115 19.731L11.885 24.501L20.795 15.591Z" fill="#F8C690"/>
</svg>
