<svg width="30" height="30" viewBox="0 0 30 30" fill="none" xmlns="http://www.w3.org/2000/svg">
<path d="M15 27.001C18.1826 27.001 21.2348 25.7367 23.4853 23.4863C25.7357 21.2358 27 18.1836 27 15.001C27 11.8184 25.7357 8.76613 23.4853 6.5157C21.2348 4.26526 18.1826 3.00098 15 3.00098C11.8174 3.00098 8.76515 4.26526 6.51472 6.5157C4.26428 8.76613 3 11.8184 3 15.001C3 18.1836 4.26428 21.2358 6.51472 23.4863C8.76515 25.7367 11.8174 27.001 15 27.001ZM15 0.000976562C16.9698 0.000976563 18.9204 0.388963 20.7403 1.14278C22.5601 1.8966 24.2137 3.0015 25.6066 4.39437C26.9995 5.78725 28.1044 7.44084 28.8582 9.26073C29.612 11.0806 30 13.0311 30 15.001C30 18.9792 28.4196 22.7945 25.6066 25.6076C22.7936 28.4206 18.9782 30.001 15 30.001C6.705 30.001 0 23.251 0 15.001C0 11.0227 1.58035 7.20742 4.3934 4.39437C7.20644 1.58133 11.0218 0.000976563 15 0.000976562ZM15.75 7.50098V15.376L22.5 19.381L21.375 21.226L13.5 16.501V7.50098H15.75Z" fill="#F8C690"/>
</svg>
