<svg width="30" height="22" viewBox="0 0 30 22" fill="none" xmlns="http://www.w3.org/2000/svg">
<path d="M0 0.875977H30V21.126H0V0.875977ZM15 5.93848C16.3261 5.93848 17.5979 6.47185 18.5355 7.42125C19.4732 8.37065 20 9.65832 20 11.001C20 12.3436 19.4732 13.6313 18.5355 14.5807C17.5979 15.5301 16.3261 16.0635 15 16.0635C13.6739 16.0635 12.4021 15.5301 11.4645 14.5807C10.5268 13.6313 10 12.3436 10 11.001C10 9.65832 10.5268 8.37065 11.4645 7.42125C12.4021 6.47185 13.6739 5.93848 15 5.93848ZM6.66667 4.25098C6.66667 5.14608 6.31548 6.00453 5.69036 6.63746C5.06523 7.2704 4.21739 7.62598 3.33333 7.62598V14.376C4.21739 14.376 5.06523 14.7316 5.69036 15.3645C6.31548 15.9974 6.66667 16.8559 6.66667 17.751H23.3333C23.3333 16.8559 23.6845 15.9974 24.3096 15.3645C24.9348 14.7316 25.7826 14.376 26.6667 14.376V7.62598C25.7826 7.62598 24.9348 7.2704 24.3096 6.63746C23.6845 6.00453 23.3333 5.14608 23.3333 4.25098H6.66667Z" fill="#F7BE80"/>
</svg>
