<svg width="24" height="32" viewBox="0 0 24 32" fill="none" xmlns="http://www.w3.org/2000/svg">
<path d="M12 24.501C10.335 24.501 9 23.151 9 21.501C9 19.836 10.335 18.501 12 18.501C12.7956 18.501 13.5587 18.817 14.1213 19.3797C14.6839 19.9423 15 20.7053 15 21.501C15 22.2966 14.6839 23.0597 14.1213 23.6223C13.5587 24.1849 12.7956 24.501 12 24.501ZM21 29.001V14.001H3V29.001H21ZM21 11.001C21.7956 11.001 22.5587 11.317 23.1213 11.8797C23.6839 12.4423 24 13.2053 24 14.001V29.001C24 29.7966 23.6839 30.5597 23.1213 31.1223C22.5587 31.6849 21.7956 32.001 21 32.001H3C1.335 32.001 0 30.651 0 29.001V14.001C0 12.336 1.335 11.001 3 11.001H4.5V8.00098C4.5 6.01185 5.29018 4.1042 6.6967 2.69768C8.10322 1.29115 10.0109 0.500977 12 0.500977C12.9849 0.500977 13.9602 0.69497 14.8701 1.07188C15.7801 1.44879 16.6069 2.00124 17.3033 2.69768C17.9997 3.39411 18.5522 4.22091 18.9291 5.13085C19.306 6.04079 19.5 7.01606 19.5 8.00098V11.001H21ZM12 3.50098C10.8065 3.50098 9.66193 3.97508 8.81802 4.819C7.97411 5.66291 7.5 6.8075 7.5 8.00098V11.001H16.5V8.00098C16.5 6.8075 16.0259 5.66291 15.182 4.819C14.3381 3.97508 13.1935 3.50098 12 3.50098Z" fill="#F7BE80"/>
</svg>
