<svg width="92" height="30" viewBox="0 0 92 30" fill="none" xmlns="http://www.w3.org/2000/svg">
<path d="M25.7169 24.5494L34.1079 4.0752L42.499 24.5494H40.6396L34.1079 8.3851L27.5792 24.5494H25.7169Z" fill="#EF7D00"/>
<path d="M0.213867 24.5493V4.72852H10.0307V6.41861H2.03466V12.6206H10.0307V14.3077H2.03466V22.8592H10.0307V24.5493H0.213867Z" fill="white"/>
<path d="M12.9357 21.1989L14.4921 20.382C14.7565 21.3593 15.2584 22.1226 15.9713 22.6514C16.6842 23.1771 17.5277 23.4444 18.5317 23.4444C19.7733 23.4444 20.7505 23.0731 21.4604 22.3365C22.1733 21.5969 22.5178 20.5929 22.5178 19.2741C22.5178 18.3236 22.2802 17.5306 21.805 16.8979C21.3297 16.2652 20.3258 15.5256 18.7693 14.7088C16.7644 13.6543 15.4456 12.7038 14.7862 11.9108C14.1268 11.1207 13.7822 10.1434 13.7822 9.00878C13.7822 7.60977 14.2574 6.47512 15.2079 5.57809C16.1584 4.70779 17.3971 4.25928 18.9297 4.25928C19.907 4.25928 20.7773 4.47017 21.5169 4.89195C22.2565 5.287 22.8357 5.91967 23.3109 6.76621L21.9119 7.60977C21.6208 7.03056 21.2258 6.60878 20.6971 6.31769C20.1683 5.99987 19.5357 5.86918 18.8228 5.86918C17.8456 5.86918 17.0555 6.1573 16.4733 6.71275C15.8941 7.29195 15.6268 8.05829 15.6268 9.03552C15.6268 10.4345 16.7614 11.7266 19.0575 12.9147C19.4792 13.1524 19.7971 13.3098 20.0079 13.4167C21.698 14.3672 22.806 15.2375 23.3852 16.0573C23.9406 16.9009 24.2317 17.9553 24.2317 19.2771C24.2317 21.0444 23.7297 22.4702 22.6753 23.5009C21.6446 24.5553 20.2188 25.084 18.4515 25.084C17.1327 25.084 16.0248 24.7424 15.101 24.1068C14.1743 23.4415 13.4614 22.491 12.9357 21.1989Z" fill="white"/>
<path d="M46.2951 24.5493V6.41861H40.8327V4.72852H53.5515V6.41861H48.0891V24.5493H46.2951Z" fill="white"/>
<path d="M59.7238 0.118652V29.881" stroke="white" stroke-width="0.6353"/>
<path d="M65.501 4.82959H66.9683V5.12365H65.8158V5.96424H66.9356V6.2583H65.8158V7.36919H66.9683V7.66325H65.501V4.82959Z" fill="white"/>
<path d="M68.9792 5.38178C68.8663 5.18574 68.7297 5.07287 68.4921 5.07287C68.2396 5.07287 68.0228 5.25406 68.0228 5.51247C68.0228 5.75604 68.2753 5.86891 68.4654 5.95504L68.6525 6.03821C69.0208 6.19861 69.3327 6.38277 69.3327 6.83426C69.3327 7.3303 68.9347 7.71049 68.4446 7.71049C67.9901 7.71049 67.6515 7.41643 67.5624 6.97683L67.8713 6.89069C67.9129 7.17881 68.1327 7.41643 68.4386 7.41643C68.7416 7.41643 69.0208 7.18475 69.0208 6.86395C69.0208 6.53425 68.7624 6.42138 68.501 6.2996L68.3287 6.22534C67.999 6.07683 67.7139 5.90752 67.7139 5.50059C67.7139 5.06098 68.0852 4.77881 68.5069 4.77881C68.8218 4.77881 69.0891 4.93921 69.2376 5.21842L68.9792 5.38178Z" fill="white"/>
<path d="M72.1426 5.45002C71.9169 5.21834 71.605 5.07576 71.2782 5.07576C70.6456 5.07576 70.1376 5.62527 70.1376 6.24606C70.1376 6.86982 70.6515 7.41933 71.2872 7.41933C71.605 7.41933 71.9198 7.26784 72.1426 7.04507V7.43418C71.899 7.60942 71.599 7.71339 71.2961 7.71339C70.4971 7.71339 69.8198 7.06289 69.8198 6.26091C69.8198 5.45001 70.4852 4.78467 71.2961 4.78467C71.6109 4.78467 71.8901 4.87378 72.1426 5.06388V5.45002Z" fill="white"/>
<path d="M73.1703 6.51676C73.1703 6.72765 73.1614 6.96824 73.2951 7.14646C73.4198 7.31874 73.6604 7.41676 73.8654 7.41676C74.0673 7.41676 74.2901 7.32171 74.4208 7.16428C74.5723 6.98606 74.5604 6.73656 74.5604 6.51379V4.82666H74.8753V6.59993C74.8753 6.90884 74.8545 7.1524 74.6287 7.38408C74.4327 7.59497 74.1505 7.70785 73.8654 7.70785C73.601 7.70785 73.3248 7.60686 73.1347 7.41973C72.8852 7.18211 72.8555 6.92369 72.8555 6.59993V4.82666H73.1703V6.51676Z" fill="white"/>
<path d="M75.6267 4.82959H77.094V5.12365H75.9416V5.96424H77.0614V6.2583H75.9416V7.36919H77.094V7.66325H75.6267V4.82959Z" fill="white"/>
<path d="M78.1366 7.36916H78.9178V7.66321H77.8218V4.83252H78.1366V7.36916Z" fill="white"/>
<path d="M79.8416 6.85818L79.5 7.66312H79.1525L80.4594 4.6958L81.7337 7.66312H81.3861L81.0535 6.85818H79.8416ZM80.4534 5.42946L79.9693 6.56412H80.9257L80.4534 5.42946Z" fill="white"/>
<path d="M66.7841 11.0195C66.6713 10.8234 66.5346 10.7106 66.297 10.7106C66.0445 10.7106 65.8277 10.8918 65.8277 11.1502C65.8277 11.3937 66.0802 11.5066 66.2703 11.5927L66.4604 11.6759C66.8287 11.8363 67.1376 12.0205 67.1376 12.4719C67.1376 12.968 66.7396 13.3482 66.2495 13.3482C65.795 13.3482 65.4564 13.0541 65.3673 12.6145L65.6762 12.5284C65.7178 12.8165 65.9406 13.0541 66.2435 13.0541C66.5465 13.0541 66.8257 12.8224 66.8257 12.5016C66.8257 12.1719 66.5673 12.0591 66.3059 11.9373L66.1336 11.863C65.8039 11.7145 65.5188 11.5422 65.5188 11.1383C65.5188 10.6987 65.8901 10.4165 66.3119 10.4165C66.6267 10.4165 66.894 10.5769 67.0426 10.8561L66.7841 11.0195Z" fill="white"/>
<path d="M68.0941 12.151C68.0941 12.3619 68.0852 12.6025 68.2189 12.7807C68.3436 12.953 68.5812 13.051 68.7892 13.051C68.9911 13.051 69.2139 12.956 69.3446 12.7986C69.4931 12.6203 69.4842 12.3708 69.4842 12.1481V10.4609H69.802V12.2342C69.802 12.5431 69.7812 12.7867 69.5555 13.0184C69.3595 13.2292 69.0773 13.3421 68.7921 13.3421C68.5248 13.3421 68.2515 13.2411 68.0614 13.054C67.8119 12.8164 67.7822 12.558 67.7822 12.2342V10.4609H68.0971V12.151H68.0941Z" fill="white"/>
<path d="M70.8654 13.298H70.5505V10.4673H71.0169C71.2604 10.4673 71.5129 10.4732 71.7179 10.6188C71.9288 10.7643 72.0357 11.0138 72.0357 11.2633C72.0357 11.492 71.9436 11.7237 71.7654 11.8722C71.5753 12.0297 71.3288 12.0594 71.0941 12.0594H70.8654V13.298ZM70.8654 11.7653H71.0763C71.4268 11.7653 71.7238 11.6614 71.7238 11.2544C71.7238 10.794 71.3525 10.7584 70.9842 10.7584H70.8654V11.7653Z" fill="white"/>
<path d="M72.6268 10.4673H74.0971V10.7614H72.9446V11.6019H74.0644V11.896H72.9446V13.0069H74.0971V13.301H72.6268V10.4673Z" fill="white"/>
<path d="M75.1366 13.298H74.8218V10.4673H75.2317C75.7693 10.4673 76.2683 10.6099 76.2683 11.2485C76.2683 11.6851 75.9921 11.9911 75.5584 12.0297L76.4614 13.298H76.0752L75.2198 12.0534H75.1396V13.298H75.1366ZM75.1366 11.7772H75.2347C75.5911 11.7772 75.9535 11.7089 75.9535 11.2693C75.9535 10.8029 75.6119 10.7584 75.2317 10.7584H75.1366V11.7772Z" fill="white"/>
<path d="M77.3703 13.298H77.0555V10.4673H77.3703V13.298Z" fill="white"/>
<path d="M80.9406 11.8838C80.9406 12.6977 80.2723 13.3452 79.4644 13.3452C78.6565 13.3452 77.9882 12.7007 77.9882 11.8838C77.9882 11.0729 78.6565 10.4165 79.4644 10.4165C80.2723 10.4165 80.9406 11.0729 80.9406 11.8838ZM78.306 11.8809C78.306 12.5195 78.8258 13.0512 79.4674 13.0512C80.1089 13.0512 80.6258 12.5165 80.6258 11.8809C80.6258 11.2393 80.1149 10.7076 79.4674 10.7076C78.8198 10.7076 78.306 11.2393 78.306 11.8809Z" fill="white"/>
<path d="M81.8733 13.298H81.5585V10.4673H81.9684C82.506 10.4673 83.005 10.6099 83.005 11.2485C83.005 11.6851 82.7288 11.9911 82.2951 12.0297L83.1981 13.298H82.8119L81.9565 12.0534H81.8763V13.298H81.8733ZM81.8733 11.7772H81.9713C82.3278 11.7772 82.6902 11.7089 82.6902 11.2693C82.6902 10.8029 82.3486 10.7584 81.9684 10.7584H81.8733V11.7772Z" fill="white"/>
<path d="M85.1288 10.4673H85.6634C86.0882 10.4673 86.4327 10.5237 86.7684 10.8089C87.0921 11.0851 87.2377 11.4653 87.2377 11.8871C87.2377 12.3 87.0892 12.6653 86.7773 12.9415C86.4387 13.2415 86.1001 13.298 85.6575 13.298H85.1317V10.4673H85.1288ZM85.6753 13.0039C86.0228 13.0039 86.311 12.9564 86.5694 12.7099C86.8011 12.493 86.9228 12.196 86.9228 11.8811C86.9228 11.5574 86.7981 11.2455 86.5545 11.0316C86.2961 10.8029 86.008 10.7584 85.6753 10.7584H85.4466V13.0039H85.6753Z" fill="white"/>
<path d="M87.8644 10.4673H89.3347V10.7614H88.1822V11.6019H89.302V11.896H88.1822V13.0069H89.3347V13.301H87.8644V10.4673Z" fill="white"/>
<path d="M65.9258 18.1306L65.5842 18.9356H65.2396L66.5466 15.9683L67.8208 18.9356H67.4733L67.1376 18.1306H65.9258ZM66.5347 16.7019L66.0505 17.8366H67.0069L66.5347 16.7019Z" fill="white"/>
<path d="M68.6287 18.9323H68.3138V16.1016H68.7237C69.2614 16.1016 69.7604 16.2441 69.7604 16.8828C69.7604 17.3194 69.4841 17.6253 69.0505 17.6639L69.9505 18.9323H69.5643L68.7089 17.6877H68.6287V18.9323ZM68.6287 17.4115H68.7267C69.0832 17.4115 69.4455 17.3432 69.4455 16.9035C69.4455 16.4372 69.1039 16.3927 68.7237 16.3927H68.6287V17.4115Z" fill="white"/>
<path d="M71.2159 18.9323H70.901V16.3927H70.2178V16.0986H71.9079V16.3927H71.2159V18.9323Z" fill="white"/>
<path d="M72.4158 16.1016H73.8832V16.3956H72.7307V17.2362H73.8505V17.5303H72.7307V18.6412H73.8832V18.9352H72.4158V16.1016Z" fill="white"/>
<path d="M75.701 16.1016H76.0663L76.7881 17.3639L77.5099 16.1016H77.8752L76.9455 17.7174V18.9352H76.6307V17.7174L75.701 16.1016Z" fill="white"/>
<path d="M66.2495 24.57H65.9346V22.0304H65.2515V21.7363H66.9416V22.0304H66.2495V24.57Z" fill="white"/>
<path d="M67.4525 21.7393H68.9198V22.0333H67.7674V22.8709H68.8872V23.165H67.7674V24.2759H68.9198V24.57H67.4525V21.7393Z" fill="white"/>
<path d="M71.807 22.3573C71.5812 22.1256 71.2693 21.983 70.9426 21.983C70.3129 21.983 69.802 22.5325 69.802 23.1533C69.802 23.7771 70.3159 24.3236 70.9515 24.3236C71.2723 24.3236 71.5812 24.1721 71.807 23.9494V24.3385C71.5634 24.5167 71.2604 24.6177 70.9604 24.6177C70.1614 24.6177 69.4842 23.9672 69.4842 23.1652C69.4842 22.3543 70.1495 21.689 70.9604 21.689C71.2753 21.689 71.5545 21.781 71.807 21.9682V22.3573Z" fill="white"/>
<path d="M72.5495 21.6177L74.7565 23.9315V21.7395H75.0713V24.6979L72.8614 22.387V24.5702H72.5466V21.6177H72.5495Z" fill="white"/>
<path d="M78.6624 23.1592C78.6624 23.9761 77.994 24.6206 77.1861 24.6206C76.3782 24.6206 75.7099 23.9761 75.7099 23.1592C75.7099 22.3483 76.3782 21.6919 77.1861 21.6919C77.9911 21.6889 78.6624 22.3483 78.6624 23.1592ZM76.0248 23.1533C76.0248 23.7919 76.5445 24.3236 77.1861 24.3236C77.8277 24.3236 78.3475 23.7919 78.3475 23.1533C78.3475 22.5117 77.8366 21.983 77.1861 21.983C76.5356 21.983 76.0248 22.5117 76.0248 23.1533Z" fill="white"/>
<path d="M79.5921 24.2759H80.3733V24.57H79.2772V21.7393H79.5921V24.2759Z" fill="white"/>
<path d="M83.6851 23.1592C83.6851 23.9761 83.0168 24.6206 82.2089 24.6206C81.401 24.6206 80.7327 23.9761 80.7327 23.1592C80.7327 22.3483 81.401 21.6919 82.2089 21.6919C83.0168 21.6889 83.6851 22.3483 83.6851 23.1592ZM81.0475 23.1533C81.0475 23.7919 81.5673 24.3236 82.2089 24.3236C82.8505 24.3236 83.3703 23.7919 83.3703 23.1533C83.3703 22.5117 82.8594 21.983 82.2089 21.983C81.5584 21.983 81.0475 22.5117 81.0475 23.1533Z" fill="white"/>
<path d="M86.9346 23.1474C86.9406 23.5306 86.899 23.8454 86.6435 24.1454C86.3851 24.4454 85.9901 24.6177 85.595 24.6177C84.799 24.6177 84.1366 23.9553 84.1366 23.1593C84.1366 22.3484 84.796 21.686 85.6128 21.686C86.1089 21.686 86.5099 21.9088 86.8099 22.2979L86.5811 22.5118C86.3435 22.1791 86.0257 21.9771 85.6099 21.9771C84.9653 21.9771 84.4544 22.5207 84.4544 23.1593C84.4544 23.4593 84.5732 23.7444 84.7841 23.9583C84.992 24.1662 85.2891 24.3177 85.5891 24.3177C86.0821 24.3177 86.599 23.9583 86.599 23.4326H85.7584V23.1385H86.9346V23.1474Z" fill="white"/>
<path d="M88.2089 20.9462L87.6356 21.5255L87.4485 21.4215L87.894 20.8066L88.2089 20.9462ZM87.894 24.57H87.5792V21.7393H87.894V24.57Z" fill="white"/>
<path d="M89.0822 23.7649L88.7406 24.5699H88.3931L89.7 21.6025L90.9743 24.5699H90.6238L90.2911 23.7649H89.0822ZM89.6941 22.3392L89.2099 23.4738H90.1663L89.6941 22.3392Z" fill="white"/>
</svg>
