<svg width="164" height="83" viewBox="0 0 164 83" fill="none" xmlns="http://www.w3.org/2000/svg">
<path d="M119.85 81.8834C135.91 81.8834 148.929 68.8642 148.929 52.8043C148.929 36.7443 135.91 23.7251 119.85 23.7251C103.79 23.7251 90.7709 36.7443 90.7709 52.8043C90.7709 68.8642 103.79 81.8834 119.85 81.8834Z" stroke="#EE7203" stroke-miterlimit="10"/>
<path d="M119.85 60.1458C135.91 60.1458 148.929 56.3514 148.929 51.6708C148.929 46.9902 135.91 43.1958 119.85 43.1958C103.79 43.1958 90.7709 46.9902 90.7709 51.6708C90.7709 56.3514 103.79 60.1458 119.85 60.1458Z" stroke="#EE7203" stroke-width="0.5" stroke-miterlimit="10"/>
<path d="M59.275 1.125H1.29163V59.1083H59.275V1.125Z" stroke="#EE7203" stroke-linecap="round" stroke-linejoin="round"/>
<path d="M78.5042 30.1793V26.7251H79.7375C80.0042 26.7251 80.2292 26.7751 80.4042 26.8709C80.5792 26.9709 80.7125 27.1043 80.8 27.2709C80.8875 27.4418 80.9333 27.6293 80.9333 27.8418C80.9333 28.0543 80.8875 28.2459 80.8 28.4126C80.7125 28.5834 80.5792 28.7168 80.4 28.8126C80.2208 28.9126 80 28.9584 79.7333 28.9584H78.8875V28.5168H79.6875C79.8583 28.5168 79.9958 28.4876 80.1 28.4293C80.2042 28.3709 80.2833 28.2876 80.3333 28.1876C80.3833 28.0876 80.4083 27.9709 80.4083 27.8376C80.4083 27.7043 80.3833 27.5918 80.3333 27.4918C80.2833 27.3918 80.2042 27.3126 80.1 27.2543C79.9958 27.1959 79.8542 27.1668 79.6792 27.1668H79.025V30.1751H78.5042V30.1793Z" fill="white"/>
<path d="M82.5583 30.2331C82.3166 30.2331 82.1041 30.1789 81.9208 30.0664C81.7416 29.9539 81.6 29.7998 81.5 29.5998C81.4 29.3998 81.35 29.1664 81.35 28.8998C81.35 28.6331 81.4 28.3956 81.5 28.1956C81.6 27.9956 81.7416 27.8373 81.9208 27.7248C82.1 27.6123 82.3125 27.5581 82.5583 27.5581C82.8041 27.5581 83.0125 27.6123 83.1958 27.7248C83.375 27.8373 83.5166 27.9914 83.6166 28.1956C83.7166 28.3998 83.7666 28.6331 83.7666 28.8998C83.7666 29.1664 83.7166 29.3998 83.6166 29.5998C83.5166 29.7998 83.375 29.9539 83.1958 30.0664C83.0166 30.1789 82.8041 30.2331 82.5583 30.2331ZM82.5583 29.8081C82.7166 29.8081 82.8458 29.7664 82.95 29.6831C83.0541 29.5998 83.1291 29.4873 83.1791 29.3498C83.2291 29.2123 83.2541 29.0581 83.2541 28.8914C83.2541 28.7248 83.2291 28.5748 83.1791 28.4373C83.1291 28.2998 83.0541 28.1873 82.95 28.1039C82.8458 28.0206 82.7166 27.9789 82.5583 27.9789C82.4 27.9789 82.2666 28.0206 82.1666 28.1039C82.0625 28.1873 81.9875 28.2998 81.9375 28.4373C81.8875 28.5748 81.8625 28.7289 81.8625 28.8914C81.8625 29.0539 81.8875 29.2123 81.9375 29.3498C81.9875 29.4873 82.0625 29.5998 82.1666 29.6831C82.2708 29.7664 82.4 29.8081 82.5583 29.8081Z" fill="white"/>
<path d="M86.2666 28.2206L85.8082 28.2998C85.7874 28.2415 85.7582 28.1873 85.7166 28.1331C85.6749 28.079 85.6207 28.0373 85.5499 28.004C85.4791 27.9706 85.3916 27.954 85.2874 27.954C85.1457 27.954 85.0249 27.9873 84.9291 28.0498C84.8332 28.1123 84.7874 28.1956 84.7874 28.2956C84.7874 28.3831 84.8207 28.454 84.8832 28.504C84.9457 28.5581 85.0499 28.5998 85.1957 28.6331L85.6082 28.729C85.8457 28.7831 86.0249 28.8706 86.1416 28.9831C86.2582 29.0956 86.3166 29.2456 86.3166 29.429C86.3166 29.5831 86.2707 29.7206 86.1832 29.8415C86.0957 29.9623 85.9707 30.0581 85.8124 30.1248C85.6541 30.1956 85.4707 30.229 85.2582 30.229C84.9666 30.229 84.7332 30.1665 84.5499 30.0415C84.3666 29.9165 84.2541 29.7415 84.2124 29.5123L84.6999 29.4373C84.7291 29.5623 84.7916 29.6581 84.8874 29.7248C84.9832 29.7915 85.1041 29.8206 85.2582 29.8206C85.4249 29.8206 85.5541 29.7873 85.6541 29.7165C85.7541 29.6456 85.8041 29.5623 85.8041 29.4623C85.8041 29.3831 85.7749 29.3123 85.7124 29.2581C85.6541 29.204 85.5624 29.1623 85.4374 29.1331L84.9999 29.0373C84.7582 28.9831 84.5791 28.8956 84.4624 28.7748C84.3457 28.654 84.2916 28.504 84.2916 28.3165C84.2916 28.1623 84.3332 28.029 84.4207 27.9165C84.5082 27.804 84.6249 27.7123 84.7749 27.6456C84.9249 27.5831 85.0999 27.5498 85.2916 27.5498C85.5707 27.5498 85.7916 27.6123 85.9541 27.7331C86.1166 27.854 86.2207 28.0165 86.2749 28.2165L86.2666 28.2206Z" fill="white"/>
<path d="M88.0791 27.5876V27.9918H86.6625V27.5876H88.0791ZM87.0416 26.9668H87.5458V29.4168C87.5458 29.5126 87.5583 29.5876 87.5916 29.6376C87.625 29.6876 87.6583 29.721 87.7041 29.7376C87.75 29.7543 87.8 29.7626 87.8583 29.7626C87.9 29.7626 87.9333 29.7626 87.9666 29.7543C87.9958 29.7501 88.0208 29.746 88.0375 29.7418L88.1291 30.1585C88.1 30.171 88.0583 30.1835 88.0041 30.1918C87.95 30.2043 87.8833 30.2085 87.8 30.2126C87.6666 30.2126 87.5416 30.1918 87.4291 30.1418C87.3166 30.0918 87.2208 30.0168 87.15 29.9126C87.0791 29.8085 87.0458 29.6793 87.0458 29.521V26.9668H87.0416Z" fill="white"/>
<path d="M89.6959 31.2039C89.4917 31.2039 89.3125 31.1789 89.1667 31.1248C89.0209 31.0706 88.9 30.9998 88.8042 30.9123C88.7084 30.8248 88.6417 30.7248 88.5959 30.6206L89.0292 30.4414C89.0584 30.4914 89.1 30.5414 89.15 30.5998C89.2 30.6539 89.2709 30.7039 89.3584 30.7414C89.4459 30.7789 89.5625 30.7998 89.7 30.7998C89.8917 30.7998 90.05 30.7539 90.175 30.6623C90.3 30.5706 90.3625 30.4206 90.3625 30.2206V29.7123H90.3292C90.3 29.7664 90.2542 29.8289 90.2 29.8956C90.1417 29.9623 90.0667 30.0206 89.9667 30.0706C89.8667 30.1206 89.7375 30.1456 89.5792 30.1456C89.375 30.1456 89.1917 30.0956 89.025 29.9998C88.8625 29.9039 88.7334 29.7623 88.6375 29.5748C88.5417 29.3873 88.4958 29.1539 88.4958 28.8789C88.4958 28.6039 88.5417 28.3664 88.6375 28.1706C88.7334 27.9748 88.8584 27.8248 89.025 27.7164C89.1917 27.6081 89.375 27.5581 89.5834 27.5581C89.7459 27.5581 89.875 27.5831 89.975 27.6373C90.075 27.6914 90.15 27.7539 90.2084 27.8248C90.2667 27.8956 90.3084 27.9581 90.3375 28.0123H90.375V27.5914H90.8709V30.2414C90.8709 30.4623 90.8209 30.6456 90.7167 30.7914C90.6125 30.9331 90.475 31.0414 90.2959 31.1081C90.1209 31.1748 89.9209 31.2123 89.7 31.2123L89.6959 31.2039ZM89.6917 29.7206C89.8375 29.7206 89.9584 29.6873 90.0584 29.6206C90.1584 29.5539 90.2334 29.4539 90.2875 29.3289C90.3417 29.2039 90.3667 29.0498 90.3667 28.8706C90.3667 28.6914 90.3417 28.5414 90.2875 28.4081C90.2375 28.2748 90.1584 28.1706 90.0584 28.0956C89.9584 28.0206 89.8334 27.9831 89.6875 27.9831C89.5417 27.9831 89.4084 28.0206 89.3084 28.0998C89.2084 28.1789 89.1292 28.2831 89.0792 28.4164C89.0292 28.5498 89.0042 28.6998 89.0042 28.8664C89.0042 29.0331 89.0292 29.1873 89.0834 29.3123C89.1334 29.4414 89.2125 29.5414 89.3125 29.6123C89.4125 29.6831 89.5417 29.7206 89.6875 29.7206H89.6917Z" fill="white"/>
<path d="M91.5416 30.179V27.5873H92.0291V27.9998H92.0541C92.1 27.8623 92.1833 27.7498 92.3041 27.6706C92.425 27.5915 92.5583 27.5498 92.7125 27.5498C92.7458 27.5498 92.7833 27.5498 92.825 27.5498C92.8666 27.5498 92.9041 27.554 92.925 27.5581V28.0415C92.925 28.0415 92.8708 28.029 92.8166 28.0206C92.7666 28.0123 92.7125 28.0081 92.6625 28.0081C92.5416 28.0081 92.4375 28.0331 92.3458 28.0831C92.2541 28.1331 92.1791 28.204 92.125 28.2915C92.0708 28.379 92.0458 28.479 92.0458 28.5915V30.1748H91.5416V30.179Z" fill="white"/>
<path d="M94.0958 30.2375C93.9333 30.2375 93.7833 30.2084 93.65 30.1459C93.5167 30.0834 93.4125 29.9959 93.3333 29.8792C93.2542 29.7625 93.2167 29.6209 93.2167 29.45C93.2167 29.3042 93.2458 29.1834 93.3 29.0875C93.3542 28.9917 93.4333 28.9167 93.5292 28.8625C93.625 28.8084 93.7333 28.7667 93.85 28.7375C93.9667 28.7084 94.0875 28.6875 94.2125 28.675C94.3667 28.6584 94.4917 28.6417 94.5917 28.6292C94.6917 28.6167 94.7583 28.6 94.8042 28.5709C94.85 28.5459 94.8708 28.5 94.8708 28.4375V28.425C94.8708 28.2792 94.8292 28.1625 94.7458 28.0834C94.6625 28.0042 94.5417 27.9625 94.3792 27.9625C94.2167 27.9625 94.075 28 93.9792 28.075C93.8833 28.15 93.8167 28.2334 93.7792 28.325L93.3042 28.2167C93.3625 28.0584 93.4417 27.9334 93.55 27.8334C93.6583 27.7375 93.7833 27.6667 93.925 27.6209C94.0667 27.575 94.2167 27.5542 94.3708 27.5542C94.475 27.5542 94.5833 27.5667 94.7 27.5917C94.8167 27.6167 94.925 27.6584 95.0292 27.725C95.1292 27.7875 95.2125 27.8792 95.2792 28C95.3459 28.1209 95.375 28.2709 95.375 28.4625V30.1834H94.8833V29.8292H94.8625C94.8292 29.8959 94.7792 29.9584 94.7167 30.0209C94.65 30.0834 94.5667 30.1375 94.4667 30.1792C94.3625 30.2209 94.2417 30.2417 94.1 30.2417L94.0958 30.2375ZM94.2042 29.8334C94.3417 29.8334 94.4625 29.8042 94.5625 29.75C94.6625 29.6959 94.7375 29.6209 94.7917 29.5334C94.8458 29.4459 94.8708 29.35 94.8708 29.2459V28.9125C94.8708 28.9125 94.8167 28.9459 94.7667 28.9625C94.7167 28.9792 94.6583 28.9917 94.5917 29C94.525 29.0125 94.4625 29.0209 94.4 29.0292C94.3375 29.0375 94.2875 29.0459 94.2458 29.05C94.15 29.0625 94.0583 29.0834 93.9792 29.1125C93.9 29.1417 93.8333 29.1834 93.7875 29.2375C93.7417 29.2917 93.7167 29.3625 93.7167 29.4542C93.7167 29.5792 93.7625 29.675 93.8542 29.7375C93.9458 29.8 94.0625 29.8334 94.2083 29.8334H94.2042Z" fill="white"/>
<path d="M97.0167 30.229C96.8083 30.229 96.6208 30.1749 96.4583 30.0665C96.2958 29.9582 96.1667 29.804 96.075 29.604C95.9833 29.404 95.9375 29.1665 95.9375 28.8832C95.9375 28.5999 95.9833 28.3624 96.0792 28.1665C96.175 27.9665 96.3 27.8165 96.4667 27.7082C96.6292 27.604 96.8167 27.5499 97.025 27.5499C97.1875 27.5499 97.3167 27.5749 97.4125 27.629C97.5125 27.6832 97.5875 27.7457 97.6417 27.8165C97.6958 27.8874 97.7375 27.9499 97.7708 28.004H97.8V26.7207H98.3042V30.1749H97.8125V29.7707H97.7708C97.7417 29.8249 97.6958 29.8874 97.6417 29.9582C97.5833 30.029 97.5083 30.0915 97.4083 30.1457C97.3083 30.1999 97.1833 30.2249 97.025 30.2249L97.0167 30.229ZM97.1292 29.7999C97.275 29.7999 97.3958 29.7624 97.4958 29.6832C97.5958 29.604 97.6708 29.4999 97.725 29.3624C97.7792 29.2249 97.8042 29.0665 97.8042 28.8832C97.8042 28.6999 97.7792 28.5457 97.725 28.4124C97.6708 28.279 97.5958 28.1707 97.4958 28.0957C97.3958 28.0207 97.2708 27.9832 97.125 27.9832C96.9792 27.9832 96.8458 28.0207 96.7458 28.0999C96.6458 28.179 96.5667 28.2874 96.5167 28.4207C96.4667 28.5582 96.4417 28.7124 96.4417 28.8832C96.4417 29.054 96.4667 29.2124 96.5208 29.3499C96.575 29.4874 96.65 29.5957 96.75 29.679C96.85 29.7624 96.9792 29.7999 97.125 29.7999H97.1292Z" fill="white"/>
<path d="M100.108 30.2331C99.8666 30.2331 99.6541 30.1789 99.4707 30.0664C99.2874 29.9539 99.1499 29.7998 99.0499 29.5998C98.9499 29.3998 98.8999 29.1664 98.8999 28.8998C98.8999 28.6331 98.9499 28.3956 99.0499 28.1956C99.1499 27.9956 99.2916 27.8373 99.4707 27.7248C99.6499 27.6123 99.8624 27.5581 100.108 27.5581C100.354 27.5581 100.562 27.6123 100.746 27.7248C100.925 27.8373 101.067 27.9914 101.167 28.1956C101.267 28.3998 101.317 28.6331 101.317 28.8998C101.317 29.1664 101.267 29.3998 101.167 29.5998C101.067 29.7998 100.925 29.9539 100.746 30.0664C100.567 30.1789 100.354 30.2331 100.108 30.2331ZM100.108 29.8081C100.267 29.8081 100.396 29.7664 100.5 29.6831C100.604 29.5998 100.679 29.4873 100.729 29.3498C100.779 29.2123 100.804 29.0581 100.804 28.8914C100.804 28.7248 100.779 28.5748 100.729 28.4373C100.679 28.2998 100.604 28.1873 100.5 28.1039C100.396 28.0206 100.267 27.9789 100.108 27.9789C99.9499 27.9789 99.8166 28.0206 99.7124 28.1039C99.6082 28.1873 99.5332 28.2998 99.4832 28.4373C99.4332 28.5748 99.4082 28.7289 99.4082 28.8914C99.4082 29.0539 99.4332 29.2123 99.4832 29.3498C99.5332 29.4873 99.6082 29.5998 99.7124 29.6831C99.8166 29.7664 99.9457 29.8081 100.108 29.8081Z" fill="white"/>
<path d="M104.254 30.2334C104 30.2334 103.779 30.1792 103.596 30.0667C103.412 29.9584 103.271 29.8042 103.171 29.6042C103.071 29.4042 103.021 29.1709 103.021 28.9C103.021 28.6292 103.071 28.4 103.171 28.2C103.271 27.9959 103.408 27.8417 103.587 27.725C103.767 27.6084 103.975 27.5542 104.217 27.5542C104.362 27.5542 104.504 27.5792 104.642 27.625C104.779 27.675 104.9 27.75 105.012 27.8542C105.121 27.9584 105.208 28.0917 105.271 28.2584C105.333 28.425 105.367 28.625 105.367 28.8584V29.0375H103.308V28.6584H104.875C104.875 28.525 104.85 28.4084 104.796 28.3042C104.742 28.2 104.667 28.1209 104.571 28.0625C104.475 28.0042 104.358 27.975 104.229 27.975C104.087 27.975 103.962 28.0084 103.858 28.0792C103.754 28.15 103.671 28.2375 103.617 28.35C103.558 28.4625 103.533 28.5792 103.533 28.7084V29.0042C103.533 29.1792 103.562 29.325 103.625 29.4459C103.687 29.5667 103.771 29.6584 103.883 29.725C103.992 29.7875 104.121 29.8209 104.271 29.8209C104.367 29.8209 104.454 29.8084 104.533 29.7792C104.612 29.75 104.679 29.7084 104.737 29.6542C104.796 29.6 104.837 29.5334 104.871 29.45L105.35 29.5375C105.312 29.6792 105.242 29.8 105.146 29.9042C105.046 30.0084 104.925 30.0917 104.775 30.15C104.629 30.2084 104.458 30.2375 104.271 30.2375L104.254 30.2334Z" fill="white"/>
<path d="M106.433 28.6417V30.1792H105.929V27.5875H106.413V28.0084H106.446C106.504 27.8709 106.6 27.7625 106.725 27.6792C106.854 27.5959 107.013 27.5542 107.208 27.5542C107.383 27.5542 107.538 27.5917 107.671 27.6667C107.804 27.7417 107.908 27.85 107.979 27.9959C108.054 28.1417 108.088 28.3209 108.088 28.5334V30.1792H107.583V28.5917C107.583 28.4042 107.533 28.2584 107.438 28.15C107.338 28.0417 107.204 27.9917 107.033 27.9917C106.917 27.9917 106.813 28.0167 106.721 28.0667C106.629 28.1167 106.558 28.1917 106.508 28.2875C106.454 28.3834 106.429 28.5 106.429 28.6375L106.433 28.6417Z" fill="white"/>
<path d="M112.283 26.7251H112.808V28.9959C112.808 29.2376 112.75 29.4501 112.638 29.6376C112.525 29.8251 112.362 29.9709 112.158 30.0751C111.954 30.1793 111.713 30.2334 111.433 30.2334C111.154 30.2334 110.917 30.1793 110.712 30.0751C110.508 29.9668 110.346 29.8209 110.233 29.6376C110.121 29.4501 110.062 29.2376 110.062 28.9959V26.7251H110.583V28.9543C110.583 29.1084 110.617 29.2501 110.687 29.3709C110.758 29.4918 110.854 29.5876 110.983 29.6584C111.108 29.7293 111.263 29.7626 111.438 29.7626C111.613 29.7626 111.763 29.7293 111.892 29.6584C112.021 29.5876 112.117 29.4959 112.183 29.3709C112.25 29.2501 112.283 29.1126 112.283 28.9543V26.7251Z" fill="white"/>
<path d="M113.929 26.7251L114.754 28.0751H114.779L115.604 26.7251H116.208L115.133 28.4501L116.217 30.1793H115.608L114.779 28.8459H114.754L113.925 30.1793H113.317L114.417 28.4501L113.321 26.7251H113.925H113.929Z" fill="white"/>
<path d="M118.004 26.5625L116.892 30.7H116.442L117.554 26.5625H118.004Z" fill="white"/>
<path d="M120.696 26.7251H121.217V28.9959C121.217 29.2376 121.158 29.4501 121.046 29.6376C120.933 29.8251 120.771 29.9709 120.567 30.0751C120.362 30.1793 120.121 30.2334 119.842 30.2334C119.562 30.2334 119.325 30.1793 119.121 30.0751C118.917 29.9668 118.754 29.8209 118.642 29.6376C118.529 29.4543 118.471 29.2376 118.471 28.9959V26.7251H118.992V28.9543C118.992 29.1084 119.025 29.2501 119.096 29.3709C119.167 29.4918 119.262 29.5876 119.392 29.6584C119.517 29.7293 119.671 29.7626 119.842 29.7626C120.012 29.7626 120.167 29.7293 120.296 29.6584C120.425 29.5876 120.521 29.4959 120.587 29.3709C120.654 29.2501 120.687 29.1126 120.687 28.9543V26.7251H120.696Z" fill="white"/>
<path d="M122.5 26.7251V30.1793H121.979V26.7251H122.5Z" fill="white"/>
<path d="M78.7791 35.8999C78.7041 35.8999 78.6333 35.8957 78.575 35.8832C78.5166 35.8707 78.4666 35.8582 78.4375 35.8457L78.5583 35.4332C78.65 35.4582 78.7333 35.4707 78.8041 35.4665C78.875 35.4624 78.9416 35.4374 78.9958 35.3874C79.05 35.3374 79.1 35.254 79.1416 35.1415L79.2041 34.9707L78.2583 32.3457H78.8L79.4541 34.3582H79.4791L80.1333 32.3457H80.675L79.6083 35.2832C79.5583 35.4165 79.4958 35.5332 79.4208 35.6249C79.3458 35.7207 79.2541 35.7874 79.1458 35.8374C79.0416 35.8832 78.9166 35.9082 78.7791 35.9082V35.8999Z" fill="white"/>
<path d="M83.5708 34.9293H82.4541V31.4751H83.6083C83.9458 31.4751 84.2374 31.5459 84.4791 31.6834C84.7208 31.8209 84.9083 32.0168 85.0374 32.2751C85.1666 32.5334 85.2333 32.8418 85.2333 33.2001C85.2333 33.5584 85.1666 33.8709 85.0374 34.1293C84.9083 34.3876 84.7166 34.5876 84.4708 34.7251C84.2249 34.8626 83.9249 34.9334 83.5749 34.9334L83.5708 34.9293ZM82.9749 34.4751H83.5416C83.8041 34.4751 84.0249 34.4251 84.1958 34.3251C84.3708 34.2251 84.4999 34.0793 84.5874 33.8918C84.6749 33.7043 84.7166 33.4709 84.7166 33.1959C84.7166 32.9209 84.6749 32.6959 84.5874 32.5043C84.4999 32.3168 84.3749 32.1709 84.2041 32.0751C84.0333 31.9793 83.8249 31.9293 83.5708 31.9293H82.9708V34.4709L82.9749 34.4751Z" fill="white"/>
<path d="M86.9542 34.979C86.7 34.979 86.4792 34.9248 86.2958 34.8123C86.1125 34.704 85.9708 34.5498 85.8708 34.3498C85.7708 34.1498 85.7208 33.9165 85.7208 33.6456C85.7208 33.3748 85.7708 33.1456 85.8708 32.9456C85.9708 32.7415 86.1083 32.5873 86.2875 32.4706C86.4667 32.354 86.675 32.2998 86.9167 32.2998C87.0625 32.2998 87.2042 32.3248 87.3417 32.3706C87.4792 32.4206 87.6 32.4956 87.7125 32.5998C87.8208 32.704 87.9083 32.8373 87.9708 33.004C88.0333 33.1706 88.0667 33.3706 88.0667 33.604V33.7831H86.0083V33.404H87.575C87.575 33.2706 87.55 33.154 87.4958 33.0498C87.4417 32.9456 87.3667 32.8665 87.2708 32.8081C87.175 32.7498 87.0583 32.7206 86.9292 32.7206C86.7875 32.7206 86.6625 32.754 86.5583 32.8248C86.4542 32.8956 86.3708 32.9831 86.3167 33.0956C86.2583 33.2081 86.2333 33.3248 86.2333 33.454V33.7498C86.2333 33.9248 86.2625 34.0706 86.325 34.1915C86.3875 34.3123 86.4708 34.404 86.5833 34.4706C86.6917 34.5331 86.8208 34.5665 86.9708 34.5665C87.0667 34.5665 87.1542 34.554 87.2333 34.5248C87.3125 34.4956 87.3792 34.454 87.4375 34.3998C87.4958 34.3456 87.5375 34.279 87.5708 34.1956L88.05 34.2831C88.0125 34.4248 87.9417 34.5456 87.8458 34.6498C87.7458 34.754 87.625 34.8373 87.475 34.8956C87.3292 34.954 87.1583 34.9831 86.9708 34.9831L86.9542 34.979Z" fill="white"/>
<path d="M90.5708 32.9706L90.1124 33.0498C90.0916 32.9915 90.0624 32.9373 90.0208 32.8831C89.9791 32.829 89.9249 32.7873 89.8541 32.754C89.7833 32.7206 89.6958 32.704 89.5916 32.704C89.4499 32.704 89.3291 32.7373 89.2333 32.7998C89.1374 32.8623 89.0916 32.9456 89.0916 33.0456C89.0916 33.1331 89.1249 33.204 89.1874 33.254C89.2499 33.3081 89.3541 33.3498 89.4999 33.3831L89.9124 33.479C90.1499 33.5331 90.3291 33.6206 90.4458 33.7331C90.5624 33.8456 90.6208 33.9956 90.6208 34.179C90.6208 34.3331 90.5749 34.4706 90.4874 34.5915C90.3999 34.7123 90.2749 34.8081 90.1166 34.8748C89.9583 34.9456 89.7749 34.979 89.5624 34.979C89.2708 34.979 89.0374 34.9165 88.8541 34.7915C88.6708 34.6665 88.5583 34.4915 88.5166 34.2623L89.0041 34.1873C89.0333 34.3123 89.0958 34.4081 89.1916 34.4748C89.2874 34.5415 89.4083 34.5706 89.5624 34.5706C89.7291 34.5706 89.8583 34.5373 89.9583 34.4665C90.0583 34.3956 90.1083 34.3123 90.1083 34.2123C90.1083 34.1331 90.0791 34.0623 90.0166 34.0081C89.9583 33.954 89.8666 33.9123 89.7416 33.8831L89.3041 33.7873C89.0624 33.7331 88.8833 33.6456 88.7666 33.5248C88.6499 33.404 88.5958 33.254 88.5958 33.0665C88.5958 32.9123 88.6374 32.779 88.7249 32.6665C88.8124 32.554 88.9291 32.4623 89.0791 32.3956C89.2291 32.3331 89.4041 32.2998 89.5958 32.2998C89.8749 32.2998 90.0958 32.3623 90.2583 32.4831C90.4208 32.604 90.5249 32.7665 90.5791 32.9665L90.5708 32.9706Z" fill="white"/>
<path d="M91.9249 34.9875C91.7624 34.9875 91.6124 34.9584 91.4791 34.8959C91.3458 34.8334 91.2416 34.7459 91.1666 34.6292C91.0916 34.5125 91.0499 34.3709 91.0499 34.2C91.0499 34.0542 91.0791 33.9334 91.1333 33.8375C91.1874 33.7417 91.2666 33.6667 91.3624 33.6125C91.4583 33.5584 91.5666 33.5167 91.6833 33.4875C91.7999 33.4584 91.9208 33.4375 92.0458 33.425C92.1999 33.4084 92.3249 33.3917 92.4249 33.3792C92.5208 33.3667 92.5916 33.35 92.6374 33.3209C92.6833 33.2959 92.7041 33.25 92.7041 33.1875V33.175C92.7041 33.0292 92.6624 32.9125 92.5791 32.8334C92.4958 32.7542 92.3749 32.7125 92.2124 32.7125C92.0499 32.7125 91.9083 32.75 91.8124 32.825C91.7166 32.9 91.6499 32.9834 91.6124 33.075L91.1374 32.9667C91.1916 32.8084 91.2749 32.6834 91.3833 32.5834C91.4916 32.4875 91.6166 32.4167 91.7583 32.3709C91.8999 32.325 92.0499 32.3042 92.2041 32.3042C92.3083 32.3042 92.4166 32.3167 92.5333 32.3417C92.6499 32.3667 92.7583 32.4084 92.8624 32.475C92.9624 32.5375 93.0458 32.6292 93.1124 32.75C93.1791 32.8709 93.2124 33.0209 93.2124 33.2125V34.9334H92.7208V34.5792H92.6999C92.6666 34.6459 92.6166 34.7084 92.5541 34.7709C92.4874 34.8334 92.4041 34.8875 92.3041 34.9292C92.1999 34.9709 92.0791 34.9917 91.9374 34.9917L91.9249 34.9875ZM92.0333 34.5834C92.1708 34.5834 92.2916 34.5542 92.3916 34.5C92.4916 34.4459 92.5666 34.3709 92.6208 34.2834C92.6749 34.1959 92.6999 34.1 92.6999 33.9959V33.6625C92.6999 33.6625 92.6458 33.6959 92.5958 33.7125C92.5458 33.7292 92.4874 33.7417 92.4208 33.75C92.3541 33.7625 92.2916 33.7709 92.2291 33.7792C92.1666 33.7875 92.1166 33.7959 92.0749 33.8C91.9749 33.8125 91.8874 33.8334 91.8083 33.8625C91.7291 33.8917 91.6624 33.9334 91.6166 33.9875C91.5708 34.0417 91.5458 34.1125 91.5458 34.2042C91.5458 34.3292 91.5916 34.425 91.6833 34.4875C91.7749 34.55 91.8916 34.5834 92.0374 34.5834H92.0333Z" fill="white"/>
<path d="M93.875 34.929V32.3373H94.3625V32.7498H94.3875C94.4333 32.6123 94.5167 32.4998 94.6375 32.4206C94.7583 32.3415 94.8917 32.2998 95.0458 32.2998C95.0792 32.2998 95.1167 32.2998 95.1583 32.2998C95.2 32.2998 95.2375 32.304 95.2583 32.3081V32.7915C95.2583 32.7915 95.2042 32.779 95.15 32.7706C95.1 32.7623 95.0458 32.7581 94.9958 32.7581C94.875 32.7581 94.7708 32.7831 94.6792 32.8331C94.5875 32.8831 94.5125 32.954 94.4583 33.0415C94.4042 33.129 94.3792 33.229 94.3792 33.3415V34.9248H93.875V34.929Z" fill="white"/>
<path d="M95.7 34.929V32.3373H96.1875V32.7498H96.2124C96.2583 32.6123 96.3416 32.4998 96.4625 32.4206C96.5833 32.3415 96.7166 32.2998 96.8708 32.2998C96.9041 32.2998 96.9416 32.2998 96.9833 32.2998C97.025 32.2998 97.0624 32.304 97.0833 32.3081V32.7915C97.0833 32.7915 97.025 32.779 96.975 32.7706C96.925 32.7623 96.8708 32.7581 96.8208 32.7581C96.7 32.7581 96.5958 32.7831 96.5041 32.8331C96.4124 32.8831 96.3374 32.954 96.2833 33.0415C96.2291 33.129 96.2041 33.229 96.2041 33.3415V34.9248H95.7V34.929Z" fill="white"/>
<path d="M98.525 34.9792C98.2833 34.9792 98.0708 34.925 97.8875 34.8125C97.7083 34.7 97.5667 34.5459 97.4667 34.3459C97.3667 34.1459 97.3167 33.9125 97.3167 33.6459C97.3167 33.3792 97.3667 33.1417 97.4667 32.9417C97.5667 32.7417 97.7083 32.5834 97.8875 32.4709C98.0666 32.3584 98.2791 32.3042 98.525 32.3042C98.7708 32.3042 98.9791 32.3584 99.1625 32.4709C99.3458 32.5834 99.4833 32.7375 99.5833 32.9417C99.6833 33.1417 99.7333 33.3792 99.7333 33.6459C99.7333 33.9125 99.6833 34.1459 99.5833 34.3459C99.4833 34.5459 99.3416 34.7 99.1625 34.8125C98.9833 34.925 98.7708 34.9792 98.525 34.9792ZM98.525 34.5542C98.6833 34.5542 98.8125 34.5125 98.9167 34.4292C99.0208 34.3459 99.0958 34.2334 99.1458 34.0959C99.1958 33.9584 99.2208 33.8042 99.2208 33.6375C99.2208 33.4709 99.1958 33.3209 99.1458 33.1834C99.0958 33.0459 99.0208 32.9334 98.9167 32.85C98.8125 32.7667 98.6833 32.725 98.525 32.725C98.3666 32.725 98.2333 32.7667 98.1333 32.85C98.0291 32.9334 97.9541 33.0459 97.9041 33.1834C97.8541 33.3209 97.8291 33.475 97.8291 33.6375C97.8291 33.8 97.8541 33.9584 97.9041 34.0959C97.9541 34.2334 98.0291 34.3459 98.1333 34.4292C98.2375 34.5125 98.3666 34.5542 98.525 34.5542Z" fill="white"/>
<path d="M100.796 31.4751V34.9293H100.292V31.4751H100.796Z" fill="white"/>
<path d="M101.979 31.4751V34.9293H101.475V31.4751H101.979Z" fill="white"/>
<path d="M103.75 34.9792C103.508 34.9792 103.296 34.925 103.112 34.8125C102.933 34.7 102.792 34.5459 102.692 34.3459C102.592 34.1459 102.542 33.9125 102.542 33.6459C102.542 33.3792 102.592 33.1417 102.692 32.9417C102.792 32.7417 102.933 32.5834 103.112 32.4709C103.292 32.3584 103.504 32.3042 103.75 32.3042C103.996 32.3042 104.204 32.3584 104.387 32.4709C104.567 32.5834 104.708 32.7375 104.808 32.9417C104.908 33.1417 104.958 33.3792 104.958 33.6459C104.958 33.9125 104.908 34.1459 104.808 34.3459C104.708 34.5459 104.567 34.7 104.387 34.8125C104.208 34.925 103.996 34.9792 103.75 34.9792ZM103.75 34.5542C103.908 34.5542 104.037 34.5125 104.142 34.4292C104.246 34.3459 104.321 34.2334 104.371 34.0959C104.421 33.9584 104.446 33.8042 104.446 33.6375C104.446 33.4709 104.421 33.3209 104.371 33.1834C104.321 33.0459 104.246 32.9334 104.142 32.85C104.037 32.7667 103.908 32.725 103.75 32.725C103.592 32.725 103.458 32.7667 103.354 32.85C103.25 32.9334 103.175 33.0459 103.125 33.1834C103.075 33.3209 103.05 33.475 103.05 33.6375C103.05 33.8 103.075 33.9584 103.125 34.0959C103.175 34.2334 103.25 34.3459 103.354 34.4292C103.458 34.5125 103.587 34.5542 103.75 34.5542Z" fill="white"/>
<path d="M107.492 34.9293L106.533 31.4751H107.083L107.758 34.1501H107.792L108.492 31.4751H109.033L109.733 34.1501H109.767L110.437 31.4751H110.987L110.029 34.9293H109.504L108.779 32.3418H108.754L108.029 34.9293H107.504H107.492Z" fill="white"/>
<path d="M112.283 34.979C112.029 34.979 111.808 34.9248 111.625 34.8123C111.442 34.704 111.3 34.5498 111.2 34.3498C111.1 34.1498 111.05 33.9165 111.05 33.6456C111.05 33.3748 111.1 33.1456 111.2 32.9456C111.3 32.7415 111.437 32.5873 111.617 32.4706C111.796 32.354 112.004 32.2998 112.246 32.2998C112.392 32.2998 112.533 32.3248 112.671 32.3706C112.808 32.4206 112.929 32.4956 113.042 32.5998C113.15 32.704 113.237 32.8373 113.3 33.004C113.362 33.1706 113.396 33.3706 113.396 33.604V33.7831H111.337V33.404H112.904C112.904 33.2706 112.879 33.154 112.825 33.0498C112.771 32.9456 112.696 32.8665 112.6 32.8081C112.504 32.7498 112.387 32.7206 112.258 32.7206C112.117 32.7206 111.992 32.754 111.887 32.8248C111.783 32.8956 111.7 32.9831 111.646 33.0956C111.587 33.2081 111.562 33.3248 111.562 33.454V33.7498C111.562 33.9248 111.592 34.0706 111.654 34.1915C111.717 34.3123 111.8 34.404 111.912 34.4706C112.021 34.5331 112.15 34.5665 112.3 34.5665C112.396 34.5665 112.483 34.554 112.562 34.5248C112.642 34.4956 112.708 34.454 112.767 34.3998C112.825 34.3456 112.867 34.279 112.9 34.1956L113.379 34.2831C113.342 34.4248 113.271 34.5456 113.175 34.6498C113.075 34.754 112.954 34.8373 112.804 34.8956C112.658 34.954 112.487 34.9831 112.3 34.9831L112.283 34.979Z" fill="white"/>
<path d="M113.996 34.9293V31.4751H114.5V32.7584H114.529C114.558 32.7043 114.6 32.6418 114.654 32.5709C114.708 32.5001 114.788 32.4376 114.883 32.3834C114.979 32.3293 115.113 32.3043 115.271 32.3043C115.479 32.3043 115.667 32.3584 115.829 32.4626C115.992 32.5668 116.121 32.7209 116.217 32.9209C116.313 33.1209 116.358 33.3584 116.358 33.6376C116.358 33.9168 116.313 34.1584 116.217 34.3584C116.125 34.5584 115.996 34.7126 115.833 34.8209C115.671 34.9293 115.483 34.9834 115.275 34.9834C115.117 34.9834 114.988 34.9584 114.892 34.9043C114.792 34.8501 114.713 34.7876 114.658 34.7168C114.6 34.6459 114.558 34.5834 114.529 34.5293H114.488V34.9334H113.996V34.9293ZM114.492 33.6334C114.492 33.8168 114.517 33.9751 114.571 34.1126C114.625 34.2501 114.7 34.3584 114.8 34.4334C114.9 34.5084 115.021 34.5501 115.167 34.5501C115.313 34.5501 115.442 34.5084 115.546 34.4293C115.646 34.3501 115.725 34.2376 115.775 34.1001C115.829 33.9626 115.854 33.8043 115.854 33.6334C115.854 33.4626 115.829 33.3084 115.779 33.1709C115.729 33.0334 115.65 32.9293 115.55 32.8501C115.45 32.7709 115.321 32.7334 115.171 32.7334C115.021 32.7334 114.9 32.7709 114.8 32.8459C114.7 32.9209 114.625 33.0251 114.571 33.1626C114.517 33.3001 114.492 33.4543 114.492 33.6334Z" fill="white"/>
<path d="M118.225 34.9293V31.4751H120.367V31.9251H118.746V32.9793H120.212V33.4251H118.746V34.9293H118.225Z" fill="white"/>
<path d="M120.938 34.929V32.3373H121.425V32.7498H121.45C121.496 32.6123 121.579 32.4998 121.7 32.4206C121.821 32.3415 121.954 32.2998 122.108 32.2998C122.142 32.2998 122.179 32.2998 122.221 32.2998C122.263 32.2998 122.3 32.304 122.321 32.3081V32.7915C122.321 32.7915 122.267 32.779 122.213 32.7706C122.163 32.7623 122.108 32.7581 122.058 32.7581C121.938 32.7581 121.833 32.7831 121.742 32.8331C121.65 32.8831 121.575 32.954 121.521 33.0415C121.467 33.129 121.442 33.229 121.442 33.3415V34.9248H120.938V34.929Z" fill="white"/>
<path d="M123.758 34.9792C123.517 34.9792 123.304 34.925 123.121 34.8125C122.942 34.7 122.8 34.5459 122.7 34.3459C122.6 34.1459 122.55 33.9125 122.55 33.6459C122.55 33.3792 122.6 33.1417 122.7 32.9417C122.8 32.7417 122.942 32.5834 123.121 32.4709C123.3 32.3584 123.512 32.3042 123.758 32.3042C124.004 32.3042 124.212 32.3584 124.396 32.4709C124.575 32.5834 124.717 32.7375 124.817 32.9417C124.917 33.1459 124.967 33.3792 124.967 33.6459C124.967 33.9125 124.917 34.1459 124.817 34.3459C124.717 34.5459 124.575 34.7 124.396 34.8125C124.217 34.925 124.004 34.9792 123.758 34.9792ZM123.758 34.5542C123.917 34.5542 124.046 34.5125 124.15 34.4292C124.254 34.3459 124.329 34.2334 124.379 34.0959C124.429 33.9584 124.454 33.8042 124.454 33.6375C124.454 33.4709 124.429 33.3209 124.379 33.1834C124.329 33.0459 124.254 32.9334 124.15 32.85C124.046 32.7667 123.917 32.725 123.758 32.725C123.6 32.725 123.467 32.7667 123.367 32.85C123.262 32.9334 123.187 33.0459 123.137 33.1834C123.087 33.3209 123.062 33.475 123.062 33.6375C123.062 33.8 123.087 33.9584 123.137 34.0959C123.187 34.2334 123.262 34.3459 123.367 34.4292C123.471 34.5125 123.6 34.5542 123.758 34.5542Z" fill="white"/>
<path d="M126.033 33.3917V34.9292H125.529V32.3375H126.012V32.7584H126.046C126.104 32.6209 126.2 32.5125 126.325 32.4292C126.454 32.3459 126.612 32.3042 126.808 32.3042C126.983 32.3042 127.138 32.3417 127.271 32.4167C127.404 32.4917 127.508 32.6 127.579 32.7459C127.65 32.8917 127.688 33.0709 127.688 33.2834V34.9292H127.183V33.3417C127.183 33.1542 127.133 33.0084 127.038 32.9C126.942 32.7917 126.804 32.7417 126.633 32.7417C126.517 32.7417 126.413 32.7667 126.321 32.8167C126.229 32.8667 126.158 32.9417 126.108 33.0375C126.054 33.1334 126.029 33.25 126.029 33.3875L126.033 33.3917Z" fill="white"/>
<path d="M129.575 32.3376V32.7418H128.158V32.3376H129.575ZM128.537 31.7168H129.042V34.1668C129.042 34.2626 129.058 34.3376 129.087 34.3876C129.117 34.4376 129.154 34.471 129.2 34.4876C129.246 34.5043 129.296 34.5126 129.354 34.5126C129.396 34.5126 129.429 34.5126 129.462 34.5043C129.496 34.496 129.517 34.496 129.533 34.4918L129.625 34.9085C129.596 34.921 129.554 34.9335 129.5 34.9418C129.446 34.9543 129.379 34.9585 129.296 34.9626C129.162 34.9626 129.037 34.9418 128.925 34.8918C128.808 34.8418 128.717 34.7668 128.646 34.6626C128.575 34.5585 128.537 34.4293 128.537 34.271V31.7168Z" fill="white"/>
<path d="M131.429 34.9293V31.4751H133.596V31.9251H131.95V32.9793H133.483V33.4251H131.95V34.4834H133.617V34.9334H131.429V34.9293Z" fill="white"/>
<path d="M134.758 33.3917V34.9292H134.254V32.3375H134.737V32.7584H134.771C134.829 32.6209 134.925 32.5125 135.05 32.4292C135.179 32.3459 135.337 32.3042 135.533 32.3042C135.708 32.3042 135.862 32.3417 135.996 32.4167C136.129 32.4917 136.233 32.6 136.304 32.7459C136.379 32.8917 136.412 33.0709 136.412 33.2834V34.9292H135.908V33.3417C135.908 33.1542 135.858 33.0084 135.762 32.9C135.667 32.7917 135.529 32.7417 135.358 32.7417C135.242 32.7417 135.137 32.7667 135.046 32.8167C134.954 32.8667 134.883 32.9417 134.833 33.0375C134.779 33.1334 134.754 33.25 134.754 33.3875L134.758 33.3917Z" fill="white"/>
<path d="M138.058 34.979C137.85 34.979 137.662 34.9249 137.5 34.8165C137.337 34.7082 137.208 34.554 137.117 34.354C137.025 34.154 136.979 33.9165 136.979 33.6332C136.979 33.3499 137.025 33.1124 137.121 32.9165C137.217 32.7165 137.342 32.5665 137.508 32.4582C137.671 32.354 137.858 32.2999 138.067 32.2999C138.229 32.2999 138.358 32.3249 138.454 32.379C138.554 32.4332 138.629 32.4957 138.683 32.5665C138.737 32.6374 138.779 32.6999 138.812 32.754H138.842V31.4707H139.346V34.9249H138.854V34.5207H138.812C138.783 34.5749 138.737 34.6374 138.683 34.7082C138.625 34.779 138.55 34.8415 138.45 34.8957C138.35 34.9499 138.225 34.9749 138.067 34.9749L138.058 34.979ZM138.171 34.5499C138.317 34.5499 138.437 34.5124 138.537 34.4332C138.637 34.354 138.712 34.2499 138.767 34.1124C138.821 33.9749 138.846 33.8165 138.846 33.6332C138.846 33.4499 138.821 33.2957 138.767 33.1624C138.712 33.029 138.637 32.9207 138.537 32.8457C138.437 32.7707 138.312 32.7332 138.167 32.7332C138.021 32.7332 137.887 32.7707 137.787 32.8499C137.687 32.929 137.608 33.0374 137.558 33.1707C137.508 33.3082 137.483 33.4624 137.483 33.6332C137.483 33.804 137.508 33.9624 137.562 34.0999C137.617 34.2374 137.692 34.3457 137.792 34.429C137.892 34.5124 138.021 34.5499 138.167 34.5499H138.171Z" fill="white"/>
<path d="M52.9667 23.8291H54.9417V30.9541C54.9417 31.7374 54.7584 32.4208 54.3917 33.0166C54.025 33.6083 53.5084 34.0708 52.8459 34.4041C52.1834 34.7374 51.4042 34.9041 50.5167 34.9041C49.6292 34.9041 48.8459 34.7374 48.1834 34.4041C47.5209 34.0708 47.0042 33.6083 46.6375 33.0166C46.2709 32.4249 46.0875 31.7374 46.0875 30.9541V23.8291H48.0625V30.7916C48.0625 31.2458 48.1625 31.6499 48.3625 32.0083C48.5625 32.3624 48.8459 32.6416 49.2125 32.8416C49.5792 33.0416 50.0125 33.1416 50.5125 33.1416C51.0125 33.1416 51.4459 33.0416 51.8125 32.8416C52.1792 32.6416 52.4625 32.3624 52.6625 32.0083C52.8625 31.6541 52.9625 31.2499 52.9625 30.7916V23.8291H52.9667Z" fill="white"/>
<path d="M59.0708 23.8291V34.7374H57.0958V23.8291H59.0708Z" fill="white"/>
<path d="M41.6541 23.3169L38.1375 36.3794H36.45L39.9666 23.3169H41.6541Z" fill="white"/>
<path d="M21.0708 23.8291H23.0458V30.9541C23.0458 31.7374 22.8625 32.4208 22.4958 33.0166C22.1291 33.6083 21.6125 34.0708 20.95 34.4041C20.2875 34.7374 19.5083 34.9041 18.6208 34.9041C17.7333 34.9041 16.95 34.7374 16.2875 34.4041C15.625 34.0708 15.1083 33.6083 14.7417 33.0166C14.375 32.4249 14.1917 31.7374 14.1917 30.9541V23.8291H16.1667V30.7916C16.1667 31.2458 16.2666 31.6499 16.4666 32.0083C16.6666 32.3624 16.95 32.6416 17.3167 32.8416C17.6833 33.0416 18.1167 33.1416 18.6167 33.1416C19.1167 33.1416 19.55 33.0416 19.9167 32.8416C20.2833 32.6416 20.5667 32.3624 20.7667 32.0083C20.9667 31.6541 21.0666 31.2499 21.0666 30.7916V23.8291H21.0708Z" fill="white"/>
<path d="M26.85 23.8291L29.2541 27.8249H29.3375L31.75 23.8291H34.0041L30.6416 29.2833L34.0541 34.7374H31.7625L29.3333 30.7708H29.25L26.8208 34.7374H24.5416L27.9875 29.2833L24.5833 23.8291H26.8458H26.85Z" fill="white"/>
<path d="M68.9375 37.8042C68.675 37.8042 68.4334 37.7834 68.2084 37.7417C67.9875 37.7 67.8084 37.6542 67.6792 37.6L68.125 36.0959C68.4042 36.1792 68.6542 36.2167 68.875 36.2125C69.0959 36.2125 69.2917 36.1417 69.4584 36.0084C69.625 35.875 69.7709 35.6542 69.8875 35.3459L70.0542 34.9042L67.0875 26.5542H69.1334L71.0209 32.7334H71.1042L72.9959 26.5542H75.0459L71.7709 35.725C71.6167 36.1584 71.4167 36.5292 71.1625 36.8417C70.9084 37.1542 70.6042 37.3917 70.2375 37.5542C69.875 37.7209 69.4375 37.8042 68.9334 37.8042H68.9375Z" fill="white"/>
<path d="M14.4917 49.7374V38.8291H21.4792V40.4874H16.4667V43.4499H21V45.1083H16.4667V49.7416H14.4917V49.7374Z" fill="white"/>
<path d="M23.0708 49.7373V41.5539H24.9416V42.9164H25.0291C25.1791 42.4456 25.4333 42.0789 25.8 41.8206C26.1625 41.5623 26.5791 41.4331 27.05 41.4331C27.1583 41.4331 27.275 41.4331 27.4083 41.4456C27.5416 41.4539 27.6541 41.4664 27.7416 41.4873V43.2623C27.6583 43.2331 27.5333 43.2081 27.3541 43.1831C27.1791 43.1581 27.0083 43.1498 26.8458 43.1498C26.4958 43.1498 26.1791 43.2248 25.9 43.3748C25.6208 43.5248 25.4 43.7331 25.2416 43.9998C25.0833 44.2664 25 44.5748 25 44.9206V49.7289H23.0708V49.7373Z" fill="white"/>
<path d="M32.25 49.8958C31.45 49.8958 30.7583 49.7208 30.1708 49.3666C29.5833 49.0125 29.1291 48.525 28.8083 47.8916C28.4875 47.2583 28.325 46.5208 28.325 45.675C28.325 44.8291 28.4833 44.0875 28.8083 43.4541C29.1291 42.8166 29.5833 42.325 30.1708 41.975C30.7583 41.625 31.45 41.4458 32.25 41.4458C33.05 41.4458 33.7416 41.6208 34.3291 41.975C34.9166 42.3291 35.3708 42.8208 35.6916 43.4541C36.0125 44.0916 36.175 44.8291 36.175 45.675C36.175 46.5208 36.0166 47.2583 35.6916 47.8916C35.3708 48.525 34.9166 49.0166 34.3291 49.3666C33.7416 49.7166 33.05 49.8958 32.25 49.8958ZM32.2625 48.35C32.6958 48.35 33.0583 48.2291 33.35 47.9916C33.6416 47.75 33.8583 47.4291 34.0041 47.025C34.1458 46.6208 34.2208 46.1708 34.2208 45.6708C34.2208 45.1708 34.15 44.7166 34.0041 44.3083C33.8583 43.9 33.6416 43.5791 33.35 43.3375C33.0583 43.0958 32.6958 42.975 32.2625 42.975C31.8291 42.975 31.45 43.0958 31.1583 43.3375C30.8666 43.5791 30.6458 43.9041 30.5041 44.3083C30.3625 44.7166 30.2875 45.1666 30.2875 45.6708C30.2875 46.175 30.3583 46.6208 30.5041 47.025C30.65 47.4291 30.8666 47.75 31.1583 47.9916C31.45 48.2333 31.8208 48.35 32.2625 48.35Z" fill="white"/>
<path d="M39.7292 44.9419V49.7377H37.8V41.5544H39.6417V42.946H39.7375C39.925 42.4877 40.225 42.1252 40.6417 41.8544C41.0542 41.5835 41.5667 41.4502 42.1792 41.4502C42.7459 41.4502 43.2375 41.571 43.6584 41.8127C44.0792 42.0544 44.4042 42.4044 44.6375 42.8627C44.8709 43.321 44.9834 43.8752 44.9792 44.5294V49.7377H43.05V44.8252C43.05 44.2794 42.9084 43.8502 42.625 43.5419C42.3417 43.2335 41.9542 43.0794 41.4542 43.0794C41.1167 43.0794 40.8167 43.1544 40.5584 43.3002C40.2959 43.446 40.0917 43.6585 39.9459 43.9377C39.8 44.2169 39.725 44.5502 39.725 44.946L39.7292 44.9419Z" fill="white"/>
<path d="M51.0291 41.5541V43.0457H46.325V41.5541H51.0291ZM47.4875 39.5916H49.4166V47.2707C49.4166 47.5291 49.4583 47.7291 49.5374 47.8624C49.6166 47.9999 49.725 48.0916 49.8541 48.1416C49.9833 48.1916 50.1333 48.2166 50.2916 48.2166C50.4124 48.2166 50.5249 48.2082 50.6249 48.1916C50.7249 48.1749 50.8041 48.1582 50.8583 48.1416L51.1833 49.6499C51.0791 49.6874 50.9333 49.7249 50.7458 49.7666C50.5541 49.8082 50.3249 49.8332 50.0499 49.8416C49.5666 49.8541 49.1333 49.7832 48.7458 49.6207C48.3583 49.4582 48.0541 49.2082 47.8249 48.8666C47.5958 48.5249 47.4874 48.0999 47.4916 47.5874V39.5874L47.4875 39.5916Z" fill="white"/>
<path d="M57.3375 44.3999V45.9874H52.425V44.3999H57.3375Z" fill="white"/>
<path d="M59.45 49.7374V38.8291H66.5458V40.4874H61.425V43.4499H66.1749V45.1083H61.425V48.0874H66.5875V49.7458H59.45V49.7374Z" fill="white"/>
<path d="M70.4083 44.9419V49.7377H68.4791V41.5544H70.3208V42.946H70.4166C70.6041 42.4877 70.9041 42.1252 71.3208 41.8544C71.7333 41.5835 72.2458 41.4502 72.8583 41.4502C73.4208 41.4502 73.9166 41.571 74.3375 41.8127C74.7583 42.0544 75.0833 42.4044 75.3166 42.8627C75.55 43.321 75.6625 43.8752 75.6583 44.5294V49.7377H73.7291V44.8252C73.7291 44.2794 73.5875 43.8502 73.3041 43.5419C73.0208 43.2335 72.6333 43.0794 72.1333 43.0794C71.7958 43.0794 71.4958 43.1544 71.2375 43.3002C70.975 43.446 70.7708 43.6585 70.625 43.9377C70.4791 44.2169 70.4041 44.5502 70.4041 44.946L70.4083 44.9419Z" fill="white"/>
<path d="M80.6625 49.8833C80.0208 49.8833 79.4458 49.7166 78.9375 49.3874C78.4291 49.0583 78.0291 48.5791 77.7333 47.9499C77.4375 47.3208 77.2916 46.5583 77.2916 45.6583C77.2916 44.7583 77.4416 43.9791 77.7416 43.3541C78.0416 42.7291 78.4458 42.2541 78.9583 41.9333C79.4708 41.6124 80.0375 41.4499 80.6666 41.4499C81.1458 41.4499 81.5416 41.5291 81.85 41.6916C82.1583 41.8541 82.4041 42.0458 82.5833 42.2708C82.7625 42.4958 82.9041 42.7083 83.0041 42.9083H83.0833V38.8291H85.0166V49.7374H83.1208V48.4499H83.0041C82.9041 48.6499 82.7625 48.8583 82.5708 49.0791C82.3833 49.2999 82.1333 49.4916 81.825 49.6458C81.5166 49.8041 81.1291 49.8791 80.6583 49.8791L80.6625 49.8833ZM81.2 48.2999C81.6083 48.2999 81.9583 48.1874 82.2458 47.9666C82.5333 47.7458 82.75 47.4333 82.9 47.0374C83.05 46.6374 83.125 46.1749 83.125 45.6458C83.125 45.1166 83.05 44.6583 82.9041 44.2666C82.7583 43.8749 82.5416 43.5708 82.2541 43.3541C81.9666 43.1374 81.6166 43.0291 81.2041 43.0291C80.7916 43.0291 80.4166 43.1416 80.1291 43.3624C79.8416 43.5874 79.625 43.8958 79.4791 44.2874C79.3333 44.6833 79.2625 45.1333 79.2625 45.6416C79.2625 46.1499 79.3375 46.6083 79.4833 47.0083C79.6291 47.4083 79.85 47.7208 80.1375 47.9499C80.425 48.1791 80.7833 48.2916 81.2041 48.2916L81.2 48.2999Z" fill="white"/>
<path d="M94.5874 49.7374H90.8916V38.8291H94.6624C95.7458 38.8291 96.6749 39.0458 97.4583 39.4833C98.2374 39.9166 98.8374 40.5416 99.2541 41.3541C99.6708 42.1666 99.8833 43.1416 99.8833 44.2749C99.8833 45.4083 99.6749 46.3874 99.2541 47.2041C98.8333 48.0208 98.2291 48.6458 97.4374 49.0833C96.6458 49.5208 95.6999 49.7374 94.5916 49.7374H94.5874ZM92.8666 48.0291H94.4916C95.2499 48.0291 95.8833 47.8916 96.3916 47.6124C96.8999 47.3333 97.2791 46.9166 97.5374 46.3624C97.7916 45.8083 97.9208 45.1124 97.9208 44.2791C97.9208 43.4458 97.7916 42.7499 97.5374 42.1999C97.2833 41.6458 96.9041 41.2333 96.4041 40.9583C95.9041 40.6833 95.2874 40.5458 94.5458 40.5458H92.8624V48.0333L92.8666 48.0291Z" fill="white"/>
<path d="M105.292 49.896C104.471 49.896 103.762 49.7252 103.171 49.3835C102.575 49.0419 102.121 48.5544 101.8 47.9252C101.479 47.296 101.321 46.5502 101.321 45.696C101.321 44.8419 101.483 44.1169 101.804 43.4752C102.125 42.8377 102.575 42.3419 103.154 41.9835C103.733 41.6252 104.412 41.4502 105.196 41.4502C105.7 41.4502 106.175 41.5294 106.625 41.6919C107.075 41.8544 107.471 42.1044 107.817 42.4419C108.162 42.7794 108.437 43.2085 108.633 43.7294C108.833 44.2502 108.933 44.8669 108.933 45.5877V46.1794H102.225V44.8794H107.083C107.083 44.5085 107 44.1794 106.842 43.8919C106.683 43.6044 106.467 43.3752 106.187 43.2085C105.908 43.0419 105.583 42.9585 105.217 42.9585C104.821 42.9585 104.475 43.0544 104.179 43.2419C103.879 43.4335 103.65 43.6794 103.483 43.9877C103.317 44.296 103.233 44.6294 103.229 44.996V46.1294C103.229 46.6044 103.317 47.0127 103.492 47.3502C103.667 47.6877 103.908 47.9502 104.221 48.1294C104.533 48.3085 104.9 48.4002 105.317 48.4002C105.596 48.4002 105.85 48.3585 106.079 48.2794C106.308 48.2002 106.504 48.0794 106.671 47.9252C106.837 47.771 106.962 47.5752 107.05 47.346L108.85 47.5502C108.737 48.0252 108.521 48.4419 108.204 48.7919C107.887 49.146 107.479 49.4169 106.987 49.6127C106.492 49.8044 105.929 49.9044 105.292 49.9044V49.896Z" fill="white"/>
<path d="M117.629 41.5542L114.717 49.7375H112.588L109.675 41.5542H111.729L113.608 47.6334H113.692L115.579 41.5542H117.629Z" fill="white"/>
<path d="M122.3 49.896C121.479 49.896 120.771 49.7252 120.179 49.3835C119.583 49.0419 119.129 48.5544 118.808 47.9252C118.488 47.296 118.329 46.5502 118.329 45.696C118.329 44.8419 118.492 44.1169 118.813 43.4752C119.133 42.8377 119.583 42.3419 120.163 41.9835C120.742 41.6252 121.421 41.4502 122.204 41.4502C122.708 41.4502 123.183 41.5294 123.633 41.6919C124.083 41.8544 124.479 42.1044 124.825 42.4419C125.171 42.7794 125.446 43.2085 125.642 43.7294C125.842 44.2502 125.942 44.8669 125.942 45.5877V46.1794H119.233V44.8794H124.092C124.092 44.5085 124.008 44.1794 123.85 43.8919C123.692 43.6044 123.475 43.3752 123.196 43.2085C122.917 43.0419 122.592 42.9585 122.225 42.9585C121.829 42.9585 121.483 43.0544 121.188 43.2419C120.888 43.4335 120.658 43.6794 120.492 43.9877C120.325 44.296 120.242 44.6294 120.238 44.996V46.1294C120.238 46.6044 120.325 47.0127 120.5 47.3502C120.675 47.6877 120.917 47.9502 121.229 48.1294C121.542 48.3085 121.908 48.4002 122.325 48.4002C122.604 48.4002 122.858 48.3585 123.088 48.2794C123.317 48.2002 123.513 48.0794 123.679 47.9252C123.846 47.771 123.971 47.5752 124.058 47.346L125.858 47.5502C125.746 48.0252 125.529 48.4419 125.213 48.7919C124.896 49.146 124.488 49.4169 123.996 49.6127C123.5 49.8044 122.938 49.9044 122.3 49.9044V49.896Z" fill="white"/>
<path d="M129.496 38.8291V49.7374H127.567V38.8291H129.496Z" fill="white"/>
<path d="M135.05 49.8958C134.25 49.8958 133.558 49.7208 132.971 49.3666C132.383 49.0125 131.929 48.525 131.608 47.8916C131.288 47.2583 131.125 46.5208 131.125 45.675C131.125 44.8291 131.288 44.0875 131.608 43.4541C131.929 42.8166 132.383 42.325 132.971 41.975C133.558 41.625 134.25 41.4458 135.05 41.4458C135.85 41.4458 136.542 41.6208 137.129 41.975C137.717 42.3291 138.171 42.8208 138.492 43.4541C138.812 44.0916 138.975 44.8291 138.975 45.675C138.975 46.5208 138.812 47.2583 138.492 47.8916C138.171 48.525 137.717 49.0166 137.129 49.3666C136.542 49.7166 135.85 49.8958 135.05 49.8958ZM135.062 48.35C135.496 48.35 135.858 48.2291 136.15 47.9916C136.442 47.75 136.658 47.4291 136.804 47.025C136.95 46.6208 137.021 46.1708 137.021 45.6708C137.021 45.1708 136.95 44.7166 136.804 44.3083C136.663 43.9 136.442 43.5791 136.15 43.3375C135.858 43.0958 135.496 42.975 135.062 42.975C134.629 42.975 134.25 43.0958 133.958 43.3375C133.667 43.5791 133.446 43.9041 133.304 44.3083C133.162 44.7166 133.087 45.1666 133.087 45.6708C133.087 46.175 133.158 46.6208 133.304 47.025C133.45 47.4291 133.667 47.75 133.958 47.9916C134.25 48.2333 134.621 48.35 135.062 48.35Z" fill="white"/>
<path d="M140.6 52.8044V41.5544H142.496V42.9085H142.608C142.708 42.7085 142.85 42.496 143.029 42.271C143.208 42.046 143.454 41.8502 143.762 41.6919C144.071 41.5335 144.467 41.4502 144.946 41.4502C145.579 41.4502 146.15 41.6085 146.658 41.9335C147.167 42.2544 147.571 42.7294 147.875 43.3544C148.175 43.9794 148.325 44.7502 148.325 45.6585C148.325 46.5669 148.179 47.321 147.883 47.9502C147.587 48.5794 147.187 49.0585 146.679 49.3877C146.171 49.7169 145.596 49.8835 144.954 49.8835C144.487 49.8835 144.096 49.8044 143.787 49.6502C143.479 49.4919 143.229 49.3044 143.046 49.0835C142.858 48.8627 142.717 48.6502 142.612 48.4544H142.533V52.8127H140.604L140.6 52.8044ZM142.492 45.646C142.492 46.1752 142.567 46.6377 142.717 47.0377C142.867 47.4377 143.087 47.746 143.371 47.9669C143.658 48.1877 144.004 48.3002 144.412 48.3002C144.821 48.3002 145.196 48.1877 145.483 47.9585C145.771 47.7294 145.987 47.4169 146.137 47.0169C146.287 46.6169 146.358 46.1627 146.358 45.6502C146.358 45.1377 146.287 44.6919 146.142 44.296C145.996 43.9002 145.779 43.5919 145.492 43.371C145.204 43.1502 144.846 43.0377 144.417 43.0377C143.987 43.0377 143.654 43.146 143.367 43.3627C143.079 43.5794 142.862 43.8835 142.712 44.2752C142.567 44.6669 142.492 45.1252 142.492 45.6544V45.646Z" fill="white"/>
<path d="M153.592 49.896C152.771 49.896 152.063 49.7252 151.471 49.3835C150.875 49.0419 150.421 48.5544 150.1 47.9252C149.779 47.296 149.621 46.5502 149.621 45.696C149.621 44.8419 149.783 44.1169 150.104 43.4752C150.425 42.8377 150.875 42.3419 151.454 41.9835C152.033 41.6252 152.713 41.4502 153.496 41.4502C154 41.4502 154.475 41.5294 154.925 41.6919C155.375 41.8544 155.771 42.1044 156.117 42.4419C156.463 42.7794 156.738 43.2085 156.933 43.7294C157.133 44.2502 157.233 44.8669 157.233 45.5877V46.1794H150.525V44.8794H155.383C155.383 44.5085 155.3 44.1794 155.142 43.8919C154.983 43.6044 154.767 43.3752 154.488 43.2085C154.208 43.0419 153.883 42.9585 153.517 42.9585C153.121 42.9585 152.775 43.0544 152.479 43.2419C152.179 43.4335 151.95 43.6794 151.783 43.9877C151.617 44.296 151.533 44.6294 151.529 44.996V46.1294C151.529 46.6044 151.617 47.0127 151.792 47.3502C151.967 47.6877 152.208 47.9502 152.521 48.1294C152.833 48.3085 153.2 48.4002 153.617 48.4002C153.896 48.4002 154.15 48.3585 154.379 48.2794C154.608 48.2002 154.804 48.0794 154.971 47.9252C155.138 47.771 155.263 47.5752 155.35 47.346L157.15 47.5502C157.038 48.0252 156.821 48.4419 156.504 48.7919C156.188 49.146 155.779 49.4169 155.288 49.6127C154.792 49.8044 154.229 49.9044 153.592 49.9044V49.896Z" fill="white"/>
<path d="M158.858 49.7373V41.5539H160.729V42.9164H160.812C160.962 42.4456 161.217 42.0789 161.583 41.8206C161.946 41.5623 162.362 41.4331 162.833 41.4331C162.942 41.4331 163.058 41.4331 163.192 41.4456C163.325 41.4539 163.437 41.4664 163.525 41.4873V43.2623C163.442 43.2331 163.312 43.2081 163.137 43.1831C162.962 43.1581 162.792 43.1498 162.629 43.1498C162.279 43.1498 161.962 43.2248 161.683 43.3748C161.404 43.5248 161.183 43.7331 161.025 43.9998C160.867 44.2664 160.783 44.5748 160.783 44.9206V49.7289H158.854L158.858 49.7373Z" fill="white"/>
</svg>
