<svg width="31" height="31" viewBox="0 0 31 31" fill="none" xmlns="http://www.w3.org/2000/svg">
<path d="M17.695 30.286L15.25 24.541C17.605 23.671 19.81 22.501 21.85 21.136L17.695 30.286ZM6.46003 15.751L0.715027 13.306L9.86503 9.15098C8.50003 11.191 7.33003 13.396 6.46003 15.751ZM26.83 3.00098C27.25 3.00098 27.625 3.00098 27.94 3.07598C28.195 5.16098 27.91 9.45098 22.99 14.371C20.44 16.936 17.395 18.901 13.975 20.206L10.75 17.056C12.13 13.591 14.095 10.546 16.63 8.01098C20.77 3.87098 24.46 3.00098 26.83 3.00098ZM26.83 0.000976562C23.86 0.000976562 19.36 1.03598 14.5 5.89598C11.215 9.18098 9.25003 12.796 7.97503 15.961C7.55503 17.086 7.84003 18.316 8.66503 19.156L11.86 22.336C12.43 22.906 13.195 23.251 13.99 23.251C14.335 23.251 14.695 23.161 15.04 23.026C18.25 21.796 21.82 19.786 25.105 16.501C33.595 8.01098 30.415 0.585977 30.415 0.585977C30.415 0.585977 29.05 0.000976562 26.83 0.000976562ZM19.81 11.191C18.64 10.021 18.64 8.11598 19.81 6.94598C20.98 5.77598 22.885 5.77598 24.055 6.94598C25.21 8.11598 25.225 10.021 24.055 11.191C22.885 12.361 20.98 12.361 19.81 11.191ZM7.36003 30.001L12.82 24.541C12.31 24.406 11.815 24.181 11.365 23.866L5.24503 30.001H7.36003ZM1.00003 30.001H3.11503L10.27 22.861L8.14003 20.746L1.00003 27.886V30.001ZM1.00003 25.756L7.13503 19.636C6.82003 19.186 6.59503 18.706 6.46003 18.181L1.00003 23.641V25.756Z" fill="#EF7D00"/>
</svg>
