<svg width="30" height="30" viewBox="0 0 30 30" fill="none" xmlns="http://www.w3.org/2000/svg">
<path d="M29.565 27.436L27.435 29.566C27.154 29.8454 26.7738 30.0022 26.3775 30.0022C25.9813 30.0022 25.6011 29.8454 25.32 29.566L7.50003 11.776C7.01225 11.9173 6.5078 11.993 6.00003 12.001C5.04498 12.0003 4.1039 11.7716 3.25501 11.334C2.40613 10.8964 1.67398 10.2625 1.11942 9.48492C0.564869 8.70737 0.203938 7.80867 0.0666391 6.86355C-0.07066 5.91842 0.0196393 4.95418 0.330029 4.05098L4.14003 7.86098L4.93503 7.06598L7.06503 4.93598L7.86003 4.14098L4.05003 0.330977C4.95323 0.0205865 5.91748 -0.0697129 6.8626 0.0675862C7.80773 0.204885 8.70642 0.565816 9.48397 1.12037C10.2615 1.67492 10.8955 2.40708 11.3331 3.25596C11.7707 4.10485 11.9993 5.04593 12 6.00098C11.992 6.50875 11.9163 7.01319 11.775 7.50098L29.565 25.321C29.8444 25.602 30.0012 25.9822 30.0012 26.3785C30.0012 26.7748 29.8444 27.1549 29.565 27.436ZM0.435029 25.321C0.155653 25.602 -0.00115967 25.9822 -0.00115967 26.3785C-0.00115967 26.7748 0.155653 27.1549 0.435029 27.436L2.56503 29.566C2.84607 29.8454 3.22625 30.0022 3.62253 30.0022C4.01881 30.0022 4.39899 29.8454 4.68003 29.566L12.885 21.376L8.64003 17.131M27 0.000976562L21 3.00098V6.00098L17.745 9.25598L20.745 12.256L24 9.00098H27L30 3.00098L27 0.000976562Z" fill="#EF7D00"/>
</svg>
