<svg width="48" height="48" viewBox="0 0 48 48" fill="none" xmlns="http://www.w3.org/2000/svg">
<path d="M24 48C37.2548 48 48 37.2548 48 24C48 10.7452 37.2548 0 24 0C10.7452 0 0 10.7452 0 24C0 37.2548 10.7452 48 24 48Z" fill="white"/>
<path fill-rule="evenodd" clip-rule="evenodd" d="M30.188 27.956C27.896 27.956 26.296 26.33 26.296 24C26.296 21.67 27.896 20.044 30.188 20.044C32.478 20.044 34.078 21.67 34.078 24C34.078 26.33 32.478 27.956 30.188 27.956ZM18.14 20.044H25.906L25.718 20.224C24.644 21.254 24.03 22.63 24.03 24C24.03 27.476 26.618 30 30.188 30C33.76 30 36.352 27.476 36.352 24C36.352 20.524 33.76 18 30.188 18H18.158C14.59 18 12 20.524 12 24C12 27.476 14.59 30 18.158 30H22.446V27.956H18.14C15.868 27.956 14.276 26.33 14.266 24C14.266 21.708 15.896 20.044 18.14 20.044Z" fill="#FF8400"/>
</svg>
